HIERARCHY
ROOT hips
{
  OFFSET 0 10.6860622 2.3727825e-15
  CHANNELS 6 Xposition Yposition Zposition Yrotation Xrotation Zrotation
  JOINT leftUpperLeg
  {
    OFFSET 0.6642549969 -0.9402397400000004 0
    CHANNELS 3 Yrotation Xrotation Zrotation
    JOINT leftLowerLeg
    {
      OFFSET 0 -3.997221335632195 0
      CHANNELS 3 Yrotation Xrotation Zrotation
      JOINT leftFoot
      {
        OFFSET -0.13777839790000004 -4.6145792000000005 -0.22186036399999998
        CHANNELS 3 Yrotation Xrotation Zrotation
        JOINT leftToes
        {
          OFFSET -0.03777410834999995 -0.9130806927000008 0.85230013
          CHANNELS 3 Yrotation Xrotation Zrotation
          End Site
          {
            OFFSET -0.03777410834999995 -0.9130806927000008 0.85230013
          }
        }
      }
    }
  }
  JOINT rightUpperLeg
  {
    OFFSET -0.6642778626 -0.9402397400000004 0
    CHANNELS 3 Yrotation Xrotation Zrotation
    JOINT rightLowerLeg
    {
      OFFSET 0 -3.997221452859387 0
      CHANNELS 3 Yrotation Xrotation Zrotation
      JOINT rightFoot
      {
        OFFSET 0.1377926176 -4.6145792000000005 -0.22185782299999995
        CHANNELS 3 Yrotation Xrotation Zrotation
        JOINT rightToes
        {
          OFFSET 0.037780746850000047 -0.9130806927000008 0.85230167
          CHANNELS 3 Yrotation Xrotation Zrotation
          End Site
          {
            OFFSET 0.037780746850000047 -0.9130806927000008 0.85230167
          }
        }
      }
    }
  }
  JOINT spine
  {
    OFFSET 0 0.13988381660000015 0
    CHANNELS 3 Yrotation Xrotation Zrotation
    JOINT chest
    {
      OFFSET 0 0.6191039003973773 0
      CHANNELS 3 Yrotation Xrotation Zrotation
      JOINT upperChest
      {
        OFFSET 0 0.9855186130586943 0
        CHANNELS 3 Yrotation Xrotation Zrotation
        JOINT leftShoulder
        {
          OFFSET 0.1807663869 1.5087829790000005 0
          CHANNELS 3 Yrotation Xrotation Zrotation
          JOINT leftUpperArm
          {
            OFFSET 0.5985063006419806 0 0
            CHANNELS 3 Yrotation Xrotation Zrotation
            JOINT leftLowerArm
            {
              OFFSET 2.2993332369501065 0 0
              CHANNELS 3 Yrotation Xrotation Zrotation
              JOINT leftHand
              {
                OFFSET 2.395047042602395 0 0
                CHANNELS 3 Yrotation Xrotation Zrotation
                JOINT leftIndexProximal
                {
                  OFFSET 0.5766295810000004 0.04556643899499946 0.17265095988184
                  CHANNELS 3 Yrotation Xrotation Zrotation
                  JOINT leftIndexIntermediate
                  {
                    OFFSET 0.2957229000000008 -0.019352197700001517 -0.007932640616999987
                    CHANNELS 3 Yrotation Xrotation Zrotation
                    JOINT leftIndexDistal
                    {
                      OFFSET 0.19008243099999922 -0.012484908149998475 -0.002786250786000012
                      CHANNELS 3 Yrotation Xrotation Zrotation
                      End Site
                      {
                        OFFSET 0.19008243099999922 -0.012484908149998475 -0.002786250786000012
                      }
                    }
                  }
                }
                JOINT leftMiddleProximal
                {
                  OFFSET 0.5834975091000001 0.0524350405149987 0.02204081888183999
                  CHANNELS 3 Yrotation Xrotation Zrotation
                  JOINT leftMiddleIntermediate
                  {
                    OFFSET 0.33880573540000003 -0.019871473270000717 -0.00000971183179999946
                    CHANNELS 3 Yrotation Xrotation Zrotation
                    JOINT leftMiddleDistal
                    {
                      OFFSET 0.20676022730000088 -0.012221336379999448 0.0001471936708000235
                      CHANNELS 3 Yrotation Xrotation Zrotation
                      End Site
                      {
                        OFFSET 0.20676022730000088 -0.012221336379999448 0.0001471936708000235
                      }
                    }
                  }
                }
                JOINT leftLittleProximal
                {
                  OFFSET 0.5344154683999995 -0.012880921405001189 -0.24414037221816004
                  CHANNELS 3 Yrotation Xrotation Zrotation
                  JOINT leftLittleIntermediate
                  {
                    OFFSET 0.21758961730000093 -0.011650919939999227 0.011893592810000034
                    CHANNELS 3 Yrotation Xrotation Zrotation
                    JOINT leftLittleDistal
                    {
                      OFFSET 0.1475273964999999 -0.008152365682999818 0.006001092492999946
                      CHANNELS 3 Yrotation Xrotation Zrotation
                      End Site
                      {
                        OFFSET 0.1475273964999999 -0.008152365682999818 0.006001092492999946
                      }
                    }
                  }
                }
                JOINT leftRingProximal
                {
                  OFFSET 0.5799399463000003 0.026911854694997794 -0.12150566991816003
                  CHANNELS 3 Yrotation Xrotation Zrotation
                  JOINT leftRingIntermediate
                  {
                    OFFSET 0.26167887460000006 -0.013480186499999602 0.010996293000000053
                    CHANNELS 3 Yrotation Xrotation Zrotation
                    JOINT leftRingDistal
                    {
                      OFFSET 0.17667108799999987 -0.008990287899999228 0.0055541023999999065
                      CHANNELS 3 Yrotation Xrotation Zrotation
                      End Site
                      {
                        OFFSET 0.17667108799999987 -0.008990287899999228 0.0055541023999999065
                      }
                    }
                  }
                }
                JOINT leftThumbProximal
                {
                  OFFSET 0.11018806699999972 -0.09448718900500053 0.17047963138184
                  CHANNELS 3 Yrotation Xrotation Zrotation
                  JOINT leftThumbIntermediate
                  {
                    OFFSET 0.31062601459999983 -0.08126270900000132 0.15443142000000007
                    CHANNELS 3 Yrotation Xrotation Zrotation
                    JOINT leftThumbDistal
                    {
                      OFFSET 0.21627175790000086 -0.08833193599999878 0.018771167799999988
                      CHANNELS 3 Yrotation Xrotation Zrotation
                      End Site
                      {
                        OFFSET 0.21627175790000086 -0.08833193599999878 0.018771167799999988
                      }
                    }
                  }
                }
              }
            }
          }
        }
        JOINT neck
        {
          OFFSET 0 1.5463305265074576 0
          CHANNELS 3 Yrotation Xrotation Zrotation
          JOINT head
          {
            OFFSET 0 0.8456443600000344 0
            CHANNELS 3 Yrotation Xrotation Zrotation
            JOINT leftEye
            {
              OFFSET 0.30408573140000006 0.5104519199999995 0.1276382305
              CHANNELS 3 Yrotation Xrotation Zrotation
              End Site
              {
                OFFSET 0.30408573140000006 0.5104519199999995 0.1276382305
              }
            }
            JOINT rightEye
            {
              OFFSET -0.30409491089999996 0.5104519199999995 0.1276379445
              CHANNELS 3 Yrotation Xrotation Zrotation
              End Site
              {
                OFFSET -0.30409491089999996 0.5104519199999995 0.1276379445
              }
            }
            JOINT jaw
            {
              OFFSET -3.155239131000001e-7 -0.11984121820000082 0.60178107
              CHANNELS 3 Yrotation Xrotation Zrotation
              End Site
              {
                OFFSET -3.155239131000001e-7 -0.11984121820000082 0.60178107
              }
            }
          }
        }
        JOINT rightShoulder
        {
          OFFSET -0.1807303465 1.5087829790000005 0
          CHANNELS 3 Yrotation Xrotation Zrotation
          JOINT rightUpperArm
          {
            OFFSET -0.5985063796536958 0 0
            CHANNELS 3 Yrotation Xrotation Zrotation
            JOINT rightLowerArm
            {
              OFFSET -2.2993322059002854 0 0
              CHANNELS 3 Yrotation Xrotation Zrotation
              JOINT rightHand
              {
                OFFSET -2.395045314457259 0 0
                CHANNELS 3 Yrotation Xrotation Zrotation
                JOINT rightIndexProximal
                {
                  OFFSET -0.5764487688300002 0.0441371204405987 0.17361932004999997
                  CHANNELS 3 Yrotation Xrotation Zrotation
                  JOINT rightIndexIntermediate
                  {
                    OFFSET -0.29573011380000047 -0.01934826376999843 -0.007698921482999974
                    CHANNELS 3 Yrotation Xrotation Zrotation
                    JOINT rightIndexDistal
                    {
                      OFFSET -0.19008373999999884 -0.012503266380000655 -0.0026365778999999897
                      CHANNELS 3 Yrotation Xrotation Zrotation
                      End Site
                      {
                        OFFSET -0.19008373999999884 -0.012503266380000655 -0.0026365778999999897
                      }
                    }
                  }
                }
                JOINT rightMiddleProximal
                {
                  OFFSET -0.5834852037300005 0.05211639405060153 0.02307162440000001
                  CHANNELS 3 Yrotation Xrotation Zrotation
                  JOINT rightMiddleIntermediate
                  {
                    OFFSET -0.33880114510000003 -0.019952774050000954 0.0002455003561999819
                    CHANNELS 3 Yrotation Xrotation Zrotation
                    JOINT rightMiddleDistal
                    {
                      OFFSET -0.20675694929999955 -0.012273788999999091 0.00030209124000002766
                      CHANNELS 3 Yrotation Xrotation Zrotation
                      End Site
                      {
                        OFFSET -0.20675694929999955 -0.012273788999999091 0.00030209124000002766
                      }
                    }
                  }
                }
                JOINT rightLittleProximal
                {
                  OFFSET -0.5346811737299992 -0.011214256288399227 -0.24363941305000003
                  CHANNELS 3 Yrotation Xrotation Zrotation
                  JOINT rightLittleIntermediate
                  {
                    OFFSET -0.21757715980000092 -0.011771559690000988 0.01201554387
                    CHANNELS 3 Yrotation Xrotation Zrotation
                    JOINT rightLittleDistal
                    {
                      OFFSET -0.1475201849000004 -0.00822055339600003 0.006082065407000015
                      CHANNELS 3 Yrotation Xrotation Zrotation
                      End Site
                      {
                        OFFSET -0.1475201849000004 -0.00822055339600003 0.006082065407000015
                      }
                    }
                  }
                }
                JOINT rightRingProximal
                {
                  OFFSET -0.5800810755299999 0.027657985680600072 -0.12066365025000003
                  CHANNELS 3 Yrotation Xrotation Zrotation
                  JOINT rightRingIntermediate
                  {
                    OFFSET -0.26166445029999974 -0.013623118409999302 0.011164098990000045
                    CHANNELS 3 Yrotation Xrotation Zrotation
                    JOINT rightRingDistal
                    {
                      OFFSET -0.17666387530000027 -0.009072900100000503 0.005668185599999959
                      CHANNELS 3 Yrotation Xrotation Zrotation
                      End Site
                      {
                        OFFSET -0.17666387530000027 -0.009072900100000503 0.005668185599999959
                      }
                    }
                  }
                }
                JOINT rightThumbProximal
                {
                  OFFSET -0.10997596379000074 -0.09577489355940072 0.16989765924999997
                  CHANNELS 3 Yrotation Xrotation Zrotation
                  JOINT rightThumbIntermediate
                  {
                    OFFSET -0.31036620999999986 -0.08229339117999834 0.15440884469999996
                    CHANNELS 3 Yrotation Xrotation Zrotation
                    JOINT rightThumbDistal
                    {
                      OFFSET -0.21631306399999906 -0.08825326400000111 0.018656797720000014
                      CHANNELS 3 Yrotation Xrotation Zrotation
                      End Site
                      {
                        OFFSET -0.21631306399999906 -0.08825326400000111 0.018656797720000014
                      }
                    }
                  }
                }
              }
            }
          }
        }
      }
    }
  }
}
MOTION
Frames: 8
Frame Time: 0.03333333333333333
1.0569062194525405 -5.905270889477566 1.590594588822907 -41.00030174092518 0 0 4.575555670151799 -22.586154268386014 11.232846847044277 -178.8883815290952 64.82468409748553 -171.7451329424943 26.971273425165712 52.005227698442994 27.42633249562977 0 0 0 -4.578475943795403 -22.58682374913535 -11.235877173000844 178.89972051852726 64.82555918117703 171.75628212132028 -26.978444114946456 52.003397001153964 -27.433507492793648 0 0 0 -0.18545700706404433 -6.022137188199755 4.926183512257143 2.687243044515092 28.638905426892563 2.498707257023439 0 0 0 -0.298531414447371 4.871749986659918 -36.624656799190376 2.459299140256878 -23.152007368716692 -33.40455300418406 -11.793205187196792 20.87966162978909 -34.44314525007034 0 0 19.998166730985336 0 0 0 0 0 0 0 0 0 0 0 0 0 0 0 0 0 0 0 0 0 0 0 0 0 0 0 0 0 0 0 0 0 0 0 0 0 0 0 0 0 0 0 0 0 0 22.52430974910913 0 -17.79044316719249 17.109440057281446 -2.259022171475724 0 0 0 0 0 0 0 0 0 7.456042309380163 2.202455976677017 -2.7590862358639274 -14.836103088682236 5.947940237042385 26.06890784980741 42.088346259817676 -39.300747109385156 16.37012779659124 1.3891719694637907 -16.27327328714727 13.695307348709054 0 0 0 0 0 0 0 0 0 0 0 0 0 0 0 0 0 0 0 0 0 0 0 0 0 0 0 0 0 0 0 0 0 0 0 0 0 0 0 0 0 0 0 0 0
1.0569062194525405 -5.905270889477566 1.590594588822907 -41.00030174092518 0 0 4.575555670151799 -22.586154268386014 11.232846847044277 -178.8883815290952 64.82468409748553 -171.7451329424943 26.971273425165712 52.005227698442994 27.42633249562977 0 0 0 -4.578475943795403 -22.58682374913535 -11.235877173000844 178.89972051852726 64.82555918117703 171.75628212132028 -26.978444114946456 52.003397001153964 -27.433507492793648 0 0 0 -0.18545700706404433 -6.022137188199755 4.926183512257143 2.6779419983800126 28.493084727981906 2.5340528248414724 0 0 0 -0.298531414447371 4.871749986659918 -36.624656799190376 2.459299140256878 -23.152007368716692 -33.40455300418406 -12.135801753945556 20.782198289375458 -34.0672720238232 0 0 19.998166730985336 0 0 0 0 0 0 0 0 0 0 0 0 0 0 0 0 0 0 0 0 0 0 0 0 0 0 0 0 0 0 0 0 0 0 0 0 0 0 0 0 0 0 0 0 0 0 22.52430974910913 0 -17.79044316719249 17.109440057281446 -2.259022171475724 0 0 0 0 0 0 0 0 0 7.393978851285999 2.2015500942412256 -2.7153089587480594 -14.359134673579975 6.18804433236328 26.40780579772057 42.79577558572684 -39.121908662208 16.09267385141311 1.3484313650880897 -16.060471299077495 13.85253035521261 0 0 0 0 0 0 0 0 0 0 0 0 0 0 0 0 0 0 0 0 0 0 0 0 0 0 0 0 0 0 0 0 0 0 0 0 0 0 0 0 0 0 0 0 0
1.0569062194525405 -5.905270889477566 1.590594588822907 -41.00030174092518 0 0 4.575555670151799 -22.586154268386014 11.232846847044277 -178.8883815290952 64.82468409748553 -171.7451329424943 26.971273425165712 52.005227698442994 27.42633249562977 0 0 0 -4.578475943795403 -22.58682374913535 -11.235877173000844 178.89972051852726 64.82555918117703 171.75628212132028 -26.978444114946456 52.003397001153964 -27.433507492793648 0 0 0 -0.18545700706404433 -6.022137188199755 4.926183512257143 2.673256708820836 28.420166440837058 2.551718560077837 0 0 0 -0.298531414447371 4.871749986659918 -36.624656799190376 2.459299140256878 -23.152007368716692 -33.40455300418406 -12.307635876992991 20.7341612033024 -33.87880277763168 0 0 19.998166730985336 0 0 0 0 0 0 0 0 0 0 0 0 0 0 0 0 0 0 0 0 0 0 0 0 0 0 0 0 0 0 0 0 0 0 0 0 0 0 0 0 0 0 0 0 0 0 22.52430974910913 0 -17.79044316719249 17.109440057281446 -2.259022171475724 0 0 0 0 0 0 0 0 0 7.362944946120312 2.2011154161163233 -2.693420242381656 -14.119530290157334 6.307294812248089 26.57843015870714 43.149124700563604 -39.03130769122593 15.954995714689579 1.3283095326782788 -15.954058091896236 13.93100701327243 0 0 0 0 0 0 0 0 0 0 0 0 0 0 0 0 0 0 0 0 0 0 0 0 0 0 0 0 0 0 0 0 0 0 0 0 0 0 0 0 0 0 0 0 0
1.0569062194525405 -5.905270889477566 1.590594588822907 -41.00030174092518 0 0 4.575555670151799 -22.586154268386014 11.232846847044277 -178.8883815290952 64.82468409748553 -171.7451329424943 26.971273425165712 52.005227698442994 27.42633249562977 0 0 0 -4.578475943795403 -22.58682374913535 -11.235877173000844 178.89972051852726 64.82555918117703 171.75628212132028 -26.978444114946456 52.003397001153964 -27.433507492793648 0 0 0 -0.18545700706404433 -6.022137188199755 4.926183512257143 2.668549083501907 28.347249833303117 2.569379008962626 0 0 0 -0.298531414447371 4.871749986659918 -36.624656799190376 2.459299140256878 -23.152007368716692 -33.40455300418406 -12.479584142616483 20.686652246049317 -33.690241667960876 0 0 19.998166730985336 0 0 0 0 0 0 0 0 0 0 0 0 0 0 0 0 0 0 0 0 0 0 0 0 0 0 0 0 0 0 0 0 0 0 0 0 0 0 0 0 0 0 0 0 0 0 22.52430974910913 0 -17.79044316719249 17.109440057281446 -2.259022171475724 0 0 0 0 0 0 0 0 0 7.331910706633032 2.2006926997714618 -2.6715311661985464 -13.879512598444203 6.425833843866285 26.74959404681209 43.50174423116099 -38.94004995067381 15.818216140185037 1.3083499732446158 -15.84761792924576 14.00940240922035 0 0 0 0 0 0 0 0 0 0 0 0 0 0 0 0 0 0 0 0 0 0 0 0 0 0 0 0 0 0 0 0 0 0 0 0 0 0 0 0 0 0 0 0 0
1.0569062194525405 -5.905270889477566 1.590594588822907 -41.00030174092518 0 0 4.575555670151799 -22.586154268386014 11.232846847044277 -178.8883815290952 64.82468409748553 -171.7451329424943 26.971273425165712 52.005227698442994 27.42633249562977 0 0 0 -4.578475943795403 -22.58682374913535 -11.235877173000844 178.89972051852726 64.82555918117703 171.75628212132028 -26.978444114946456 52.003397001153964 -27.433507492793648 0 0 0 -0.18545700706404433 -6.022137188199755 4.926183512257143 2.6590684895586207 28.201403733639307 2.6046917273810184 0 0 0 -0.298531414447371 4.871749986659918 -36.624656799190376 2.459299140256878 -23.152007368716692 -33.40455300418406 -12.824507999524133 20.59302872706267 -33.31206821540139 0 0 19.998166730985336 0 0 0 0 0 0 0 0 0 0 0 0 0 0 0 0 0 0 0 0 0 0 0 0 0 0 0 0 0 0 0 0 0 0 0 0 0 0 0 0 0 0 0 0 0 0 22.52430974910913 0 -17.79044316719249 17.109440057281446 -2.259022171475724 0 0 0 0 0 0 0 0 0 7.269841185247516 2.1998820843771743 -2.6277495223598284 -13.397241324176596 6.661247364167749 27.09424796163011 44.20620967511058 -38.755196752391946 15.546805963421685 1.2689256599667034 -15.634710408108308 14.16591151085022 0 0 0 0 0 0 0 0 0 0 0 0 0 0 0 0 0 0 0 0 0 0 0 0 0 0 0 0 0 0 0 0 0 0 0 0 0 0 0 0 0 0 0 0 0
1.0569062194525405 -5.905270889477566 1.590594588822907 -41.00030174092518 0 0 4.575555670151799 -22.586154268386014 11.232846847044277 -178.8883815290952 64.82468409748553 -171.7451329424943 26.971273425165712 52.005227698442994 27.42633249562977 0 0 0 -4.578475943795403 -22.58682374913535 -11.235877173000844 178.89972051852726 64.82555918117703 171.75628212132028 -26.978444114946456 52.003397001153964 -27.433507492793648 0 0 0 -0.18545700706404433 -6.022137188199755 4.926183512257143 2.654292304314654 28.12847015073403 2.622340856146929 0 0 0 -0.298531414447371 4.871749986659918 -36.624656799190376 2.459299140256878 -23.152007368716692 -33.40455300418406 -12.997478209481084 20.546926010008786 -33.1224673392767 0 0 19.998166730985336 0 0 0 0 0 0 0 0 0 0 0 0 0 0 0 0 0 0 0 0 0 0 0 0 0 0 0 0 0 0 0 0 0 0 0 0 0 0 0 0 0 0 0 0 0 0 22.52430974910913 0 -17.79044316719249 17.109440057281446 -2.259022171475724 0 0 0 0 0 0 0 0 0 7.238804188441434 2.1994941853087826 -2.605857689201583 -13.155002780769088 6.778106156074479 27.26773619829434 44.55802912832878 -38.661615620502054 15.41219329485725 1.2494603918749034 -15.528247660583114 14.244029124374771 0 0 0 0 0 0 0 0 0 0 0 0 0 0 0 0 0 0 0 0 0 0 0 0 0 0 0 0 0 0 0 0 0 0 0 0 0 0 0 0 0 0 0 0 0
1.0569062194525405 -5.905270889477566 1.590594588822907 -41.00030174092518 0 0 4.575555670151799 -22.586154268386014 11.232846847044277 -178.8883815290952 64.82468409748553 -171.7451329424943 26.971273425165712 52.005227698442994 27.42633249562977 0 0 0 -4.578475943795403 -22.58682374913535 -11.235877173000844 178.89972051852726 64.82555918117703 171.75628212132028 -26.978444114946456 52.003397001153964 -27.433507492793648 0 0 0 -0.18545700706404433 -6.022137188199755 4.926183512257143 2.6494940578718755 28.055537792173975 2.639985016147315 0 0 0 -0.298531414447371 4.871749986659918 -36.624656799190376 2.459299140256878 -23.152007368716692 -33.40455300418406 -13.170558256189434 20.50136039601939 -32.93277634024559 0 0 19.998166730985336 0 0 0 0 0 0 0 0 0 0 0 0 0 0 0 0 0 0 0 0 0 0 0 0 0 0 0 0 0 0 0 0 0 0 0 0 0 0 0 0 0 0 0 0 0 0 22.52430974910913 0 -17.79044316719249 17.109440057281446 -2.259022171475724 0 0 0 0 0 0 0 0 0 7.207766817638812 2.1991182479819167 -2.5839653824382607 -12.91234952651842 6.8942347696221935 27.441759691540938 44.90910795337691 -38.56739224057854 15.278494749454143 1.2301556794367585 -15.421758369528554 14.322068910147923 0 0 0 0 0 0 0 0 0 0 0 0 0 0 0 0 0 0 0 0 0 0 0 0 0 0 0 0 0 0 0 0 0 0 0 0 0 0 0 0 0 0 0 0 0
1.0569062194525405 -5.905270889477566 1.590594588822907 -41.00030174092518 0 0 4.575555670151799 -22.586154268386014 11.232846847044277 -178.8883815290952 64.82468409748553 -171.7451329424943 26.971273425165712 52.005227698442994 27.42633249562977 0 0 0 -4.578475943795403 -22.58682374913535 -11.235877173000844 178.89972051852726 64.82555918117703 171.75628212132028 -26.978444114946456 52.003397001153964 -27.433507492793648 0 0 0 -0.18545700706404433 -6.022137188199755 4.926183512257143 2.6398327360706664 27.909662740069383 2.6752647543084147 0 0 0 -0.298531414447371 4.871749986659918 -36.624656799190376 2.459299140256878 -23.152007368716692 -33.40455300418406 -13.517713303699843 20.41167083311467 -32.552393393471476 0 0 19.998166730985336 0 0 0 0 0 0 0 0 0 0 0 0 0 0 0 0 0 0 0 0 0 0 0 0 0 0 0 0 0 0 0 0 0 0 0 0 0 0 0 0 0 0 0 0 0 0 22.52430974910913 0 -17.79044316719249 17.109440057281446 -2.259022171475724 0 0 0 0 0 0 0 0 0 7.145691338497145 2.198402044916193 -2.5401797779873996 -12.424839273799659 7.124729713826567 27.792093613678674 45.610387870104994 -38.37667060025159 15.013346049570075 1.1920356713346523 -15.208759014013074 14.477881480971021 0 0 0 0 0 0 0 0 0 0 0 0 0 0 0 0 0 0 0 0 0 0 0 0 0 0 0 0 0 0 0 0 0 0 0 0 0 0 0 0 0 0 0 0 0
